<mxfile host="app.diagrams.net" modified="2024-06-29T03:23:46.502Z" agent="Mozilla/5.0 (Windows NT 10.0; Win64; x64) AppleWebKit/537.36 (KHTML, like Gecko) Chrome/125.0.0.0 Safari/537.36" etag="IL2hrlNP2fGCRTzaTk_0" version="24.6.4" type="github" pages="3">
  <diagram id="PhRuBHv0i8EUlA6rLvvD" name="第 1 页">
    <mxGraphModel dx="1687" dy="868" grid="0" gridSize="10" guides="1" tooltips="1" connect="1" arrows="1" fold="1" page="1" pageScale="1" pageWidth="1169" pageHeight="827" math="0" shadow="0">
      <root>
        <mxCell id="0" />
        <mxCell id="1" parent="0" />
        <mxCell id="JfLVG5m1EXEwXLsJx_JC-55" value="" style="rounded=1;whiteSpace=wrap;html=1;fontFamily=Helvetica;fontSize=11;labelBackgroundColor=default;fillColor=#fff2cc;strokeColor=#d6b656;" vertex="1" parent="1">
          <mxGeometry x="100" y="160" width="400" height="430" as="geometry" />
        </mxCell>
        <mxCell id="JfLVG5m1EXEwXLsJx_JC-53" value="" style="rounded=1;whiteSpace=wrap;html=1;fontFamily=Helvetica;fontSize=11;labelBackgroundColor=default;fillColor=#d5e8d4;strokeColor=#82b366;" vertex="1" parent="1">
          <mxGeometry x="420" y="110" width="260" height="390" as="geometry" />
        </mxCell>
        <mxCell id="JfLVG5m1EXEwXLsJx_JC-52" value="" style="rounded=1;whiteSpace=wrap;html=1;fontFamily=Helvetica;fontSize=11;labelBackgroundColor=default;fillColor=#dae8fc;strokeColor=#6c8ebf;" vertex="1" parent="1">
          <mxGeometry x="100" y="110" width="400" height="390" as="geometry" />
        </mxCell>
        <mxCell id="JfLVG5m1EXEwXLsJx_JC-23" style="edgeStyle=orthogonalEdgeStyle;rounded=0;orthogonalLoop=1;jettySize=auto;html=1;exitX=0.5;exitY=1;exitDx=0;exitDy=0;curved=1;" edge="1" parent="1" source="JfLVG5m1EXEwXLsJx_JC-1" target="JfLVG5m1EXEwXLsJx_JC-5">
          <mxGeometry relative="1" as="geometry" />
        </mxCell>
        <mxCell id="JfLVG5m1EXEwXLsJx_JC-24" style="edgeStyle=orthogonalEdgeStyle;rounded=0;orthogonalLoop=1;jettySize=auto;html=1;curved=1;" edge="1" parent="1" source="JfLVG5m1EXEwXLsJx_JC-1" target="JfLVG5m1EXEwXLsJx_JC-6">
          <mxGeometry relative="1" as="geometry" />
        </mxCell>
        <mxCell id="JfLVG5m1EXEwXLsJx_JC-1" value="" style="ellipse;whiteSpace=wrap;html=1;" vertex="1" parent="1">
          <mxGeometry x="160" y="130" width="40" height="30" as="geometry" />
        </mxCell>
        <mxCell id="JfLVG5m1EXEwXLsJx_JC-25" style="edgeStyle=orthogonalEdgeStyle;rounded=0;orthogonalLoop=1;jettySize=auto;html=1;exitX=0.5;exitY=1;exitDx=0;exitDy=0;curved=1;" edge="1" parent="1" source="JfLVG5m1EXEwXLsJx_JC-2" target="JfLVG5m1EXEwXLsJx_JC-6">
          <mxGeometry relative="1" as="geometry" />
        </mxCell>
        <mxCell id="JfLVG5m1EXEwXLsJx_JC-2" value="" style="ellipse;whiteSpace=wrap;html=1;" vertex="1" parent="1">
          <mxGeometry x="240" y="130" width="40" height="30" as="geometry" />
        </mxCell>
        <mxCell id="JfLVG5m1EXEwXLsJx_JC-26" style="edgeStyle=orthogonalEdgeStyle;rounded=0;orthogonalLoop=1;jettySize=auto;html=1;exitX=0.5;exitY=1;exitDx=0;exitDy=0;curved=1;" edge="1" parent="1" source="JfLVG5m1EXEwXLsJx_JC-3" target="JfLVG5m1EXEwXLsJx_JC-7">
          <mxGeometry relative="1" as="geometry" />
        </mxCell>
        <mxCell id="JfLVG5m1EXEwXLsJx_JC-3" value="" style="ellipse;whiteSpace=wrap;html=1;" vertex="1" parent="1">
          <mxGeometry x="320" y="130" width="40" height="30" as="geometry" />
        </mxCell>
        <mxCell id="JfLVG5m1EXEwXLsJx_JC-27" style="edgeStyle=orthogonalEdgeStyle;rounded=0;orthogonalLoop=1;jettySize=auto;html=1;exitX=0.5;exitY=1;exitDx=0;exitDy=0;curved=1;" edge="1" parent="1" source="JfLVG5m1EXEwXLsJx_JC-4" target="JfLVG5m1EXEwXLsJx_JC-9">
          <mxGeometry relative="1" as="geometry" />
        </mxCell>
        <mxCell id="JfLVG5m1EXEwXLsJx_JC-28" style="edgeStyle=orthogonalEdgeStyle;rounded=0;orthogonalLoop=1;jettySize=auto;html=1;exitX=0.5;exitY=1;exitDx=0;exitDy=0;curved=1;" edge="1" parent="1" source="JfLVG5m1EXEwXLsJx_JC-4" target="JfLVG5m1EXEwXLsJx_JC-8">
          <mxGeometry relative="1" as="geometry" />
        </mxCell>
        <mxCell id="JfLVG5m1EXEwXLsJx_JC-4" value="" style="ellipse;whiteSpace=wrap;html=1;" vertex="1" parent="1">
          <mxGeometry x="400" y="130" width="40" height="30" as="geometry" />
        </mxCell>
        <mxCell id="JfLVG5m1EXEwXLsJx_JC-29" style="edgeStyle=orthogonalEdgeStyle;shape=connector;curved=1;rounded=0;orthogonalLoop=1;jettySize=auto;html=1;exitX=0.5;exitY=1;exitDx=0;exitDy=0;strokeColor=default;align=center;verticalAlign=middle;fontFamily=Helvetica;fontSize=11;fontColor=default;labelBackgroundColor=default;endArrow=classic;" edge="1" parent="1" source="JfLVG5m1EXEwXLsJx_JC-5" target="JfLVG5m1EXEwXLsJx_JC-10">
          <mxGeometry relative="1" as="geometry" />
        </mxCell>
        <mxCell id="JfLVG5m1EXEwXLsJx_JC-5" value="" style="ellipse;whiteSpace=wrap;html=1;" vertex="1" parent="1">
          <mxGeometry x="120" y="210" width="40" height="30" as="geometry" />
        </mxCell>
        <mxCell id="JfLVG5m1EXEwXLsJx_JC-30" style="edgeStyle=orthogonalEdgeStyle;shape=connector;curved=1;rounded=0;orthogonalLoop=1;jettySize=auto;html=1;strokeColor=default;align=center;verticalAlign=middle;fontFamily=Helvetica;fontSize=11;fontColor=default;labelBackgroundColor=default;endArrow=classic;" edge="1" parent="1" source="JfLVG5m1EXEwXLsJx_JC-2" target="JfLVG5m1EXEwXLsJx_JC-11">
          <mxGeometry relative="1" as="geometry" />
        </mxCell>
        <mxCell id="JfLVG5m1EXEwXLsJx_JC-51" style="edgeStyle=orthogonalEdgeStyle;shape=connector;curved=1;rounded=0;orthogonalLoop=1;jettySize=auto;html=1;exitX=0.5;exitY=1;exitDx=0;exitDy=0;strokeColor=default;align=center;verticalAlign=middle;fontFamily=Helvetica;fontSize=11;fontColor=default;labelBackgroundColor=default;endArrow=classic;entryX=0;entryY=0.5;entryDx=0;entryDy=0;" edge="1" parent="1" source="JfLVG5m1EXEwXLsJx_JC-6" target="JfLVG5m1EXEwXLsJx_JC-16">
          <mxGeometry relative="1" as="geometry" />
        </mxCell>
        <mxCell id="JfLVG5m1EXEwXLsJx_JC-6" value="" style="ellipse;whiteSpace=wrap;html=1;" vertex="1" parent="1">
          <mxGeometry x="200" y="210" width="40" height="30" as="geometry" />
        </mxCell>
        <mxCell id="JfLVG5m1EXEwXLsJx_JC-31" style="edgeStyle=orthogonalEdgeStyle;shape=connector;curved=1;rounded=0;orthogonalLoop=1;jettySize=auto;html=1;exitX=0.5;exitY=1;exitDx=0;exitDy=0;strokeColor=default;align=center;verticalAlign=middle;fontFamily=Helvetica;fontSize=11;fontColor=default;labelBackgroundColor=default;endArrow=classic;" edge="1" parent="1" source="JfLVG5m1EXEwXLsJx_JC-7" target="JfLVG5m1EXEwXLsJx_JC-11">
          <mxGeometry relative="1" as="geometry" />
        </mxCell>
        <mxCell id="JfLVG5m1EXEwXLsJx_JC-32" style="edgeStyle=orthogonalEdgeStyle;shape=connector;curved=1;rounded=0;orthogonalLoop=1;jettySize=auto;html=1;strokeColor=default;align=center;verticalAlign=middle;fontFamily=Helvetica;fontSize=11;fontColor=default;labelBackgroundColor=default;endArrow=classic;" edge="1" parent="1" source="JfLVG5m1EXEwXLsJx_JC-7" target="JfLVG5m1EXEwXLsJx_JC-12">
          <mxGeometry relative="1" as="geometry" />
        </mxCell>
        <mxCell id="JfLVG5m1EXEwXLsJx_JC-7" value="" style="ellipse;whiteSpace=wrap;html=1;" vertex="1" parent="1">
          <mxGeometry x="280" y="210" width="40" height="30" as="geometry" />
        </mxCell>
        <mxCell id="JfLVG5m1EXEwXLsJx_JC-33" style="edgeStyle=orthogonalEdgeStyle;shape=connector;curved=1;rounded=0;orthogonalLoop=1;jettySize=auto;html=1;strokeColor=default;align=center;verticalAlign=middle;fontFamily=Helvetica;fontSize=11;fontColor=default;labelBackgroundColor=default;endArrow=classic;" edge="1" parent="1" source="JfLVG5m1EXEwXLsJx_JC-8" target="JfLVG5m1EXEwXLsJx_JC-12">
          <mxGeometry relative="1" as="geometry" />
        </mxCell>
        <mxCell id="JfLVG5m1EXEwXLsJx_JC-8" value="" style="ellipse;whiteSpace=wrap;html=1;" vertex="1" parent="1">
          <mxGeometry x="360" y="210" width="40" height="30" as="geometry" />
        </mxCell>
        <mxCell id="JfLVG5m1EXEwXLsJx_JC-34" style="edgeStyle=orthogonalEdgeStyle;shape=connector;curved=1;rounded=0;orthogonalLoop=1;jettySize=auto;html=1;exitX=0.5;exitY=1;exitDx=0;exitDy=0;strokeColor=default;align=center;verticalAlign=middle;fontFamily=Helvetica;fontSize=11;fontColor=default;labelBackgroundColor=default;endArrow=classic;" edge="1" parent="1" source="JfLVG5m1EXEwXLsJx_JC-9" target="JfLVG5m1EXEwXLsJx_JC-18">
          <mxGeometry relative="1" as="geometry" />
        </mxCell>
        <mxCell id="JfLVG5m1EXEwXLsJx_JC-35" style="edgeStyle=orthogonalEdgeStyle;shape=connector;curved=1;rounded=0;orthogonalLoop=1;jettySize=auto;html=1;strokeColor=default;align=center;verticalAlign=middle;fontFamily=Helvetica;fontSize=11;fontColor=default;labelBackgroundColor=default;endArrow=classic;" edge="1" parent="1" source="JfLVG5m1EXEwXLsJx_JC-9" target="JfLVG5m1EXEwXLsJx_JC-13">
          <mxGeometry relative="1" as="geometry" />
        </mxCell>
        <mxCell id="JfLVG5m1EXEwXLsJx_JC-9" value="" style="ellipse;whiteSpace=wrap;html=1;" vertex="1" parent="1">
          <mxGeometry x="440" y="210" width="40" height="30" as="geometry" />
        </mxCell>
        <mxCell id="JfLVG5m1EXEwXLsJx_JC-36" style="edgeStyle=orthogonalEdgeStyle;shape=connector;curved=1;rounded=0;orthogonalLoop=1;jettySize=auto;html=1;strokeColor=default;align=center;verticalAlign=middle;fontFamily=Helvetica;fontSize=11;fontColor=default;labelBackgroundColor=default;endArrow=classic;" edge="1" parent="1" source="JfLVG5m1EXEwXLsJx_JC-10" target="JfLVG5m1EXEwXLsJx_JC-14">
          <mxGeometry relative="1" as="geometry" />
        </mxCell>
        <mxCell id="JfLVG5m1EXEwXLsJx_JC-37" style="edgeStyle=orthogonalEdgeStyle;shape=connector;curved=1;rounded=0;orthogonalLoop=1;jettySize=auto;html=1;strokeColor=default;align=center;verticalAlign=middle;fontFamily=Helvetica;fontSize=11;fontColor=default;labelBackgroundColor=default;endArrow=classic;" edge="1" parent="1" source="JfLVG5m1EXEwXLsJx_JC-10" target="JfLVG5m1EXEwXLsJx_JC-15">
          <mxGeometry relative="1" as="geometry" />
        </mxCell>
        <mxCell id="JfLVG5m1EXEwXLsJx_JC-38" style="edgeStyle=orthogonalEdgeStyle;shape=connector;curved=1;rounded=0;orthogonalLoop=1;jettySize=auto;html=1;strokeColor=default;align=center;verticalAlign=middle;fontFamily=Helvetica;fontSize=11;fontColor=default;labelBackgroundColor=default;endArrow=classic;" edge="1" parent="1" source="JfLVG5m1EXEwXLsJx_JC-10" target="JfLVG5m1EXEwXLsJx_JC-19">
          <mxGeometry relative="1" as="geometry" />
        </mxCell>
        <mxCell id="JfLVG5m1EXEwXLsJx_JC-10" value="" style="ellipse;whiteSpace=wrap;html=1;" vertex="1" parent="1">
          <mxGeometry x="160" y="290" width="40" height="30" as="geometry" />
        </mxCell>
        <mxCell id="JfLVG5m1EXEwXLsJx_JC-39" style="edgeStyle=orthogonalEdgeStyle;shape=connector;curved=1;rounded=0;orthogonalLoop=1;jettySize=auto;html=1;strokeColor=default;align=center;verticalAlign=middle;fontFamily=Helvetica;fontSize=11;fontColor=default;labelBackgroundColor=default;endArrow=classic;" edge="1" parent="1" source="JfLVG5m1EXEwXLsJx_JC-11" target="JfLVG5m1EXEwXLsJx_JC-15">
          <mxGeometry relative="1" as="geometry" />
        </mxCell>
        <mxCell id="JfLVG5m1EXEwXLsJx_JC-40" style="edgeStyle=orthogonalEdgeStyle;shape=connector;curved=1;rounded=0;orthogonalLoop=1;jettySize=auto;html=1;strokeColor=default;align=center;verticalAlign=middle;fontFamily=Helvetica;fontSize=11;fontColor=default;labelBackgroundColor=default;endArrow=classic;" edge="1" parent="1" source="JfLVG5m1EXEwXLsJx_JC-11" target="JfLVG5m1EXEwXLsJx_JC-16">
          <mxGeometry relative="1" as="geometry" />
        </mxCell>
        <mxCell id="JfLVG5m1EXEwXLsJx_JC-11" value="" style="ellipse;whiteSpace=wrap;html=1;" vertex="1" parent="1">
          <mxGeometry x="240" y="290" width="40" height="30" as="geometry" />
        </mxCell>
        <mxCell id="JfLVG5m1EXEwXLsJx_JC-41" style="edgeStyle=orthogonalEdgeStyle;shape=connector;curved=1;rounded=0;orthogonalLoop=1;jettySize=auto;html=1;strokeColor=default;align=center;verticalAlign=middle;fontFamily=Helvetica;fontSize=11;fontColor=default;labelBackgroundColor=default;endArrow=classic;" edge="1" parent="1" source="JfLVG5m1EXEwXLsJx_JC-12" target="JfLVG5m1EXEwXLsJx_JC-17">
          <mxGeometry relative="1" as="geometry" />
        </mxCell>
        <mxCell id="JfLVG5m1EXEwXLsJx_JC-12" value="" style="ellipse;whiteSpace=wrap;html=1;" vertex="1" parent="1">
          <mxGeometry x="320" y="290" width="40" height="30" as="geometry" />
        </mxCell>
        <mxCell id="JfLVG5m1EXEwXLsJx_JC-42" style="edgeStyle=orthogonalEdgeStyle;shape=connector;curved=1;rounded=0;orthogonalLoop=1;jettySize=auto;html=1;entryX=0.5;entryY=0;entryDx=0;entryDy=0;strokeColor=default;align=center;verticalAlign=middle;fontFamily=Helvetica;fontSize=11;fontColor=default;labelBackgroundColor=default;endArrow=classic;" edge="1" parent="1" source="JfLVG5m1EXEwXLsJx_JC-13" target="JfLVG5m1EXEwXLsJx_JC-22">
          <mxGeometry relative="1" as="geometry" />
        </mxCell>
        <mxCell id="JfLVG5m1EXEwXLsJx_JC-43" style="edgeStyle=orthogonalEdgeStyle;shape=connector;curved=1;rounded=0;orthogonalLoop=1;jettySize=auto;html=1;strokeColor=default;align=center;verticalAlign=middle;fontFamily=Helvetica;fontSize=11;fontColor=default;labelBackgroundColor=default;endArrow=classic;" edge="1" parent="1" source="JfLVG5m1EXEwXLsJx_JC-13" target="JfLVG5m1EXEwXLsJx_JC-18">
          <mxGeometry relative="1" as="geometry" />
        </mxCell>
        <mxCell id="JfLVG5m1EXEwXLsJx_JC-13" value="" style="ellipse;whiteSpace=wrap;html=1;" vertex="1" parent="1">
          <mxGeometry x="400" y="290" width="40" height="30" as="geometry" />
        </mxCell>
        <mxCell id="JfLVG5m1EXEwXLsJx_JC-50" style="edgeStyle=orthogonalEdgeStyle;shape=connector;curved=1;rounded=0;orthogonalLoop=1;jettySize=auto;html=1;exitX=0.5;exitY=1;exitDx=0;exitDy=0;strokeColor=default;align=center;verticalAlign=middle;fontFamily=Helvetica;fontSize=11;fontColor=default;labelBackgroundColor=default;endArrow=classic;" edge="1" parent="1" source="JfLVG5m1EXEwXLsJx_JC-14" target="JfLVG5m1EXEwXLsJx_JC-19">
          <mxGeometry relative="1" as="geometry" />
        </mxCell>
        <mxCell id="JfLVG5m1EXEwXLsJx_JC-14" value="" style="ellipse;whiteSpace=wrap;html=1;" vertex="1" parent="1">
          <mxGeometry x="120" y="370" width="40" height="30" as="geometry" />
        </mxCell>
        <mxCell id="JfLVG5m1EXEwXLsJx_JC-47" style="edgeStyle=orthogonalEdgeStyle;shape=connector;curved=1;rounded=0;orthogonalLoop=1;jettySize=auto;html=1;exitX=0.5;exitY=1;exitDx=0;exitDy=0;strokeColor=default;align=center;verticalAlign=middle;fontFamily=Helvetica;fontSize=11;fontColor=default;labelBackgroundColor=default;endArrow=classic;" edge="1" parent="1" source="JfLVG5m1EXEwXLsJx_JC-15" target="JfLVG5m1EXEwXLsJx_JC-20">
          <mxGeometry relative="1" as="geometry" />
        </mxCell>
        <mxCell id="JfLVG5m1EXEwXLsJx_JC-49" style="edgeStyle=orthogonalEdgeStyle;shape=connector;curved=1;rounded=0;orthogonalLoop=1;jettySize=auto;html=1;exitX=0.5;exitY=1;exitDx=0;exitDy=0;strokeColor=default;align=center;verticalAlign=middle;fontFamily=Helvetica;fontSize=11;fontColor=default;labelBackgroundColor=default;endArrow=classic;" edge="1" parent="1" source="JfLVG5m1EXEwXLsJx_JC-15" target="JfLVG5m1EXEwXLsJx_JC-19">
          <mxGeometry relative="1" as="geometry" />
        </mxCell>
        <mxCell id="JfLVG5m1EXEwXLsJx_JC-15" value="" style="ellipse;whiteSpace=wrap;html=1;" vertex="1" parent="1">
          <mxGeometry x="200" y="370" width="40" height="30" as="geometry" />
        </mxCell>
        <mxCell id="JfLVG5m1EXEwXLsJx_JC-46" style="edgeStyle=orthogonalEdgeStyle;shape=connector;curved=1;rounded=0;orthogonalLoop=1;jettySize=auto;html=1;strokeColor=default;align=center;verticalAlign=middle;fontFamily=Helvetica;fontSize=11;fontColor=default;labelBackgroundColor=default;endArrow=classic;" edge="1" parent="1" source="JfLVG5m1EXEwXLsJx_JC-16" target="JfLVG5m1EXEwXLsJx_JC-20">
          <mxGeometry relative="1" as="geometry" />
        </mxCell>
        <mxCell id="JfLVG5m1EXEwXLsJx_JC-16" value="" style="ellipse;whiteSpace=wrap;html=1;" vertex="1" parent="1">
          <mxGeometry x="280" y="370" width="40" height="30" as="geometry" />
        </mxCell>
        <mxCell id="JfLVG5m1EXEwXLsJx_JC-45" style="edgeStyle=orthogonalEdgeStyle;shape=connector;curved=1;rounded=0;orthogonalLoop=1;jettySize=auto;html=1;strokeColor=default;align=center;verticalAlign=middle;fontFamily=Helvetica;fontSize=11;fontColor=default;labelBackgroundColor=default;endArrow=classic;" edge="1" parent="1" source="JfLVG5m1EXEwXLsJx_JC-17" target="JfLVG5m1EXEwXLsJx_JC-21">
          <mxGeometry relative="1" as="geometry" />
        </mxCell>
        <mxCell id="JfLVG5m1EXEwXLsJx_JC-17" value="" style="ellipse;whiteSpace=wrap;html=1;" vertex="1" parent="1">
          <mxGeometry x="360" y="370" width="40" height="30" as="geometry" />
        </mxCell>
        <mxCell id="JfLVG5m1EXEwXLsJx_JC-44" style="edgeStyle=orthogonalEdgeStyle;shape=connector;curved=1;rounded=0;orthogonalLoop=1;jettySize=auto;html=1;exitX=0.5;exitY=1;exitDx=0;exitDy=0;strokeColor=default;align=center;verticalAlign=middle;fontFamily=Helvetica;fontSize=11;fontColor=default;labelBackgroundColor=default;endArrow=classic;" edge="1" parent="1" source="JfLVG5m1EXEwXLsJx_JC-18" target="JfLVG5m1EXEwXLsJx_JC-22">
          <mxGeometry relative="1" as="geometry" />
        </mxCell>
        <mxCell id="JfLVG5m1EXEwXLsJx_JC-18" value="" style="ellipse;whiteSpace=wrap;html=1;" vertex="1" parent="1">
          <mxGeometry x="440" y="370" width="40" height="30" as="geometry" />
        </mxCell>
        <mxCell id="JfLVG5m1EXEwXLsJx_JC-19" value="" style="ellipse;whiteSpace=wrap;html=1;" vertex="1" parent="1">
          <mxGeometry x="160" y="450" width="40" height="30" as="geometry" />
        </mxCell>
        <mxCell id="JfLVG5m1EXEwXLsJx_JC-20" value="" style="ellipse;whiteSpace=wrap;html=1;" vertex="1" parent="1">
          <mxGeometry x="240" y="450" width="40" height="30" as="geometry" />
        </mxCell>
        <mxCell id="JfLVG5m1EXEwXLsJx_JC-21" value="" style="ellipse;whiteSpace=wrap;html=1;" vertex="1" parent="1">
          <mxGeometry x="320" y="450" width="40" height="30" as="geometry" />
        </mxCell>
        <mxCell id="JfLVG5m1EXEwXLsJx_JC-22" value="" style="ellipse;whiteSpace=wrap;html=1;" vertex="1" parent="1">
          <mxGeometry x="400" y="450" width="40" height="30" as="geometry" />
        </mxCell>
        <mxCell id="JfLVG5m1EXEwXLsJx_JC-57" value="" style="html=1;shadow=0;dashed=0;align=center;verticalAlign=middle;shape=mxgraph.arrows2.arrow;dy=0.6;dx=40;notch=0;fontFamily=Helvetica;fontSize=11;labelBackgroundColor=default;fillColor=#dae8fc;gradientColor=#7ea6e0;strokeColor=#6c8ebf;" vertex="1" parent="1">
          <mxGeometry x="570" y="255" width="70" height="100" as="geometry" />
        </mxCell>
        <mxCell id="JfLVG5m1EXEwXLsJx_JC-58" value="" style="html=1;shadow=0;dashed=0;align=center;verticalAlign=middle;shape=mxgraph.arrows2.arrow;dy=0.6;dx=40;notch=0;fontFamily=Helvetica;fontSize=11;labelBackgroundColor=default;fillColor=#ffcd28;gradientColor=#ffa500;strokeColor=#d79b00;rotation=90;" vertex="1" parent="1">
          <mxGeometry x="265" y="500" width="70" height="100" as="geometry" />
        </mxCell>
        <mxCell id="JfLVG5m1EXEwXLsJx_JC-59" value="" style="verticalLabelPosition=bottom;verticalAlign=top;html=1;shape=mxgraph.basic.x;fontFamily=Helvetica;fontSize=11;labelBackgroundColor=default;fillColor=#f8cecc;gradientColor=#ea6b66;strokeColor=#b85450;" vertex="1" parent="1">
          <mxGeometry x="360" y="525" width="40" height="50" as="geometry" />
        </mxCell>
        <mxCell id="JfLVG5m1EXEwXLsJx_JC-60" value="" style="verticalLabelPosition=bottom;verticalAlign=top;html=1;shape=mxgraph.basic.tick;fontFamily=Helvetica;fontSize=11;labelBackgroundColor=default;fillColor=#e6d0de;gradientColor=#d5739d;strokeColor=#996185;" vertex="1" parent="1">
          <mxGeometry x="585" y="355" width="55" height="60" as="geometry" />
        </mxCell>
      </root>
    </mxGraphModel>
  </diagram>
  <diagram id="Ij5HX34Pqi2R653tB50Y" name="第 2 页">
    <mxGraphModel dx="989" dy="514" grid="0" gridSize="10" guides="1" tooltips="1" connect="1" arrows="1" fold="1" page="1" pageScale="1" pageWidth="1169" pageHeight="827" math="0" shadow="0">
      <root>
        <mxCell id="0" />
        <mxCell id="1" parent="0" />
        <mxCell id="oDqVrCcSF8AjUhTJ0iat-5" style="edgeStyle=orthogonalEdgeStyle;rounded=0;orthogonalLoop=1;jettySize=auto;html=1;exitX=0.5;exitY=1;exitDx=0;exitDy=0;entryX=0;entryY=0;entryDx=0;entryDy=0;curved=1;" edge="1" parent="1" source="oDqVrCcSF8AjUhTJ0iat-1" target="oDqVrCcSF8AjUhTJ0iat-4">
          <mxGeometry relative="1" as="geometry" />
        </mxCell>
        <mxCell id="oDqVrCcSF8AjUhTJ0iat-1" value="500" style="ellipse;whiteSpace=wrap;html=1;fillColor=#dae8fc;strokeColor=#6c8ebf;" vertex="1" parent="1">
          <mxGeometry x="70" y="40" width="60" height="40" as="geometry" />
        </mxCell>
        <mxCell id="oDqVrCcSF8AjUhTJ0iat-2" value="300" style="ellipse;whiteSpace=wrap;html=1;fillColor=#dae8fc;strokeColor=#6c8ebf;" vertex="1" parent="1">
          <mxGeometry x="150" y="40" width="60" height="40" as="geometry" />
        </mxCell>
        <mxCell id="oDqVrCcSF8AjUhTJ0iat-3" value="150" style="ellipse;whiteSpace=wrap;html=1;fillColor=#dae8fc;strokeColor=#6c8ebf;" vertex="1" parent="1">
          <mxGeometry x="230" y="40" width="60" height="40" as="geometry" />
        </mxCell>
        <mxCell id="oDqVrCcSF8AjUhTJ0iat-4" value="200" style="ellipse;whiteSpace=wrap;html=1;fillColor=#dae8fc;strokeColor=#6c8ebf;" vertex="1" parent="1">
          <mxGeometry x="150" y="120" width="60" height="40" as="geometry" />
        </mxCell>
        <mxCell id="oDqVrCcSF8AjUhTJ0iat-6" style="edgeStyle=orthogonalEdgeStyle;rounded=0;orthogonalLoop=1;jettySize=auto;html=1;exitX=0.5;exitY=1;exitDx=0;exitDy=0;entryX=0.5;entryY=0;entryDx=0;entryDy=0;curved=1;" edge="1" parent="1" source="oDqVrCcSF8AjUhTJ0iat-2" target="oDqVrCcSF8AjUhTJ0iat-4">
          <mxGeometry relative="1" as="geometry">
            <mxPoint x="110" y="90" as="sourcePoint" />
            <mxPoint x="169" y="136" as="targetPoint" />
          </mxGeometry>
        </mxCell>
        <mxCell id="oDqVrCcSF8AjUhTJ0iat-7" style="edgeStyle=orthogonalEdgeStyle;rounded=0;orthogonalLoop=1;jettySize=auto;html=1;exitX=0.5;exitY=1;exitDx=0;exitDy=0;entryX=1;entryY=0;entryDx=0;entryDy=0;curved=1;" edge="1" parent="1" source="oDqVrCcSF8AjUhTJ0iat-3" target="oDqVrCcSF8AjUhTJ0iat-4">
          <mxGeometry relative="1" as="geometry">
            <mxPoint x="190" y="90" as="sourcePoint" />
            <mxPoint x="190" y="130" as="targetPoint" />
          </mxGeometry>
        </mxCell>
        <mxCell id="oDqVrCcSF8AjUhTJ0iat-8" value="" style="endArrow=none;dashed=1;html=1;rounded=0;strokeColor=#FF00FF;" edge="1" parent="1">
          <mxGeometry width="50" height="50" relative="1" as="geometry">
            <mxPoint x="124" y="145" as="sourcePoint" />
            <mxPoint x="142" y="40" as="targetPoint" />
          </mxGeometry>
        </mxCell>
        <mxCell id="oDqVrCcSF8AjUhTJ0iat-17" style="edgeStyle=orthogonalEdgeStyle;rounded=0;orthogonalLoop=1;jettySize=auto;html=1;exitX=0.5;exitY=1;exitDx=0;exitDy=0;entryX=0;entryY=0;entryDx=0;entryDy=0;curved=1;" edge="1" parent="1" source="oDqVrCcSF8AjUhTJ0iat-18" target="oDqVrCcSF8AjUhTJ0iat-21">
          <mxGeometry relative="1" as="geometry" />
        </mxCell>
        <mxCell id="oDqVrCcSF8AjUhTJ0iat-18" value="10" style="ellipse;whiteSpace=wrap;html=1;fillColor=#fff2cc;strokeColor=#d6b656;" vertex="1" parent="1">
          <mxGeometry x="70" y="200" width="60" height="40" as="geometry" />
        </mxCell>
        <mxCell id="oDqVrCcSF8AjUhTJ0iat-19" value="300" style="ellipse;whiteSpace=wrap;html=1;fillColor=#dae8fc;strokeColor=#6c8ebf;" vertex="1" parent="1">
          <mxGeometry x="150" y="200" width="60" height="40" as="geometry" />
        </mxCell>
        <mxCell id="oDqVrCcSF8AjUhTJ0iat-20" value="150" style="ellipse;whiteSpace=wrap;html=1;fillColor=#dae8fc;strokeColor=#6c8ebf;" vertex="1" parent="1">
          <mxGeometry x="230" y="200" width="60" height="40" as="geometry" />
        </mxCell>
        <mxCell id="oDqVrCcSF8AjUhTJ0iat-21" value="200" style="ellipse;whiteSpace=wrap;html=1;fillColor=#dae8fc;strokeColor=#6c8ebf;" vertex="1" parent="1">
          <mxGeometry x="150" y="280" width="60" height="40" as="geometry" />
        </mxCell>
        <mxCell id="oDqVrCcSF8AjUhTJ0iat-22" style="edgeStyle=orthogonalEdgeStyle;rounded=0;orthogonalLoop=1;jettySize=auto;html=1;exitX=0.5;exitY=1;exitDx=0;exitDy=0;entryX=0.5;entryY=0;entryDx=0;entryDy=0;curved=1;" edge="1" parent="1" source="oDqVrCcSF8AjUhTJ0iat-19" target="oDqVrCcSF8AjUhTJ0iat-21">
          <mxGeometry relative="1" as="geometry">
            <mxPoint x="110" y="250" as="sourcePoint" />
            <mxPoint x="169" y="296" as="targetPoint" />
          </mxGeometry>
        </mxCell>
        <mxCell id="oDqVrCcSF8AjUhTJ0iat-23" style="edgeStyle=orthogonalEdgeStyle;rounded=0;orthogonalLoop=1;jettySize=auto;html=1;exitX=0.5;exitY=1;exitDx=0;exitDy=0;entryX=1;entryY=0;entryDx=0;entryDy=0;curved=1;" edge="1" parent="1" source="oDqVrCcSF8AjUhTJ0iat-20" target="oDqVrCcSF8AjUhTJ0iat-21">
          <mxGeometry relative="1" as="geometry">
            <mxPoint x="190" y="250" as="sourcePoint" />
            <mxPoint x="190" y="290" as="targetPoint" />
          </mxGeometry>
        </mxCell>
        <mxCell id="oDqVrCcSF8AjUhTJ0iat-24" value="" style="endArrow=none;dashed=1;html=1;rounded=0;strokeColor=#FF00FF;" edge="1" parent="1">
          <mxGeometry width="50" height="50" relative="1" as="geometry">
            <mxPoint x="124" y="305" as="sourcePoint" />
            <mxPoint x="142" y="200" as="targetPoint" />
          </mxGeometry>
        </mxCell>
        <mxCell id="oDqVrCcSF8AjUhTJ0iat-25" value="编译时" style="text;html=1;align=center;verticalAlign=middle;whiteSpace=wrap;rounded=0;" vertex="1" parent="1">
          <mxGeometry x="10" y="90" width="60" height="30" as="geometry" />
        </mxCell>
        <mxCell id="oDqVrCcSF8AjUhTJ0iat-26" value="运行时" style="text;html=1;align=center;verticalAlign=middle;whiteSpace=wrap;rounded=0;" vertex="1" parent="1">
          <mxGeometry x="10" y="250" width="60" height="30" as="geometry" />
        </mxCell>
        <mxCell id="oDqVrCcSF8AjUhTJ0iat-27" value="" style="html=1;shadow=0;dashed=0;align=center;verticalAlign=middle;shape=mxgraph.arrows2.arrow;dy=0.52;dx=28.03;notch=10.62;rotation=90;fillColor=#bac8d3;strokeColor=none;" vertex="1" parent="1">
          <mxGeometry x="-4.5" y="160" width="89" height="37" as="geometry" />
        </mxCell>
      </root>
    </mxGraphModel>
  </diagram>
  <diagram id="CQO9vkVSQzJrukNP_2Br" name="第 3 页">
    <mxGraphModel dx="1434" dy="746" grid="0" gridSize="10" guides="1" tooltips="1" connect="1" arrows="1" fold="1" page="1" pageScale="1" pageWidth="1169" pageHeight="827" math="0" shadow="0">
      <root>
        <mxCell id="0" />
        <mxCell id="1" parent="0" />
      </root>
    </mxGraphModel>
  </diagram>
</mxfile>
